<svg height="511pt" viewBox="-36 1 511 511.999" width="511pt" xmlns="http://www.w3.org/2000/svg"><path d="m108.25 477.488281c0 4.707031-3.816406 8.523438-8.523438 8.523438-4.707031 0-8.523437-3.816407-8.523437-8.523438s3.816406-8.523437 8.523437-8.523437c4.707032 0 8.523438 3.816406 8.523438 8.523437zm0 0"/><path d="m269.003906 475.492188c-1.082031-4.578126-5.671875-7.417969-10.253906-6.335938s-7.417969 5.671875-6.335938 10.253906c1.082032 4.582032 5.671876 7.417969 10.253907 6.335938 4.582031-1.082032 7.417969-5.671875 6.335937-10.253906zm0 0"/><path d="m155.75 124.84375h-37.089844c-6.894531 0-12.503906 5.609375-12.503906 12.507812v26.171876c0 6.894531 5.609375 12.503906 12.503906 12.503906h37.089844c6.894531 0 12.503906-5.609375 12.503906-12.503906v-26.171876c0-6.898437-5.609375-12.507812-12.503906-12.507812zm-2.503906 36.179688h-32.085938v-21.171876h32.085938zm0 0"/><path d="m129.953125 191.292969c0 3.277343-2.652344 5.929687-5.925781 5.929687-3.277344 0-5.929688-2.652344-5.929688-5.929687 0-3.273438 2.652344-5.929688 5.929688-5.929688 3.273437 0 5.925781 2.65625 5.925781 5.929688zm0 0"/><path d="m156.253906 191.292969c0 3.277343-2.652344 5.929687-5.925781 5.929687-3.277344 0-5.929687-2.652344-5.929687-5.929687 0-3.273438 2.652343-5.929688 5.929687-5.929688 3.273437 0 5.925781 2.65625 5.925781 5.929688zm0 0"/><path d="m433.46875 106.332031c-4.160156-3.265625-9.492188-4.417969-14.632812-3.160156l-57.378907 14.023437h-24.605469c-5.09375 0-9.351562 3.644532-10.300781 8.464844h-10.707031c-.953125-4.820312-5.207031-8.464844-10.304688-8.464844h-18.203124v-1.375c0-12.84375-10.449219-23.292968-23.289063-23.292968h-21.84375l7.097656-36.8125h15.457031c3.261719 5.042968 8.921876 8.394531 15.359376 8.394531h56.84375c10.089843 0 18.296874-8.207031 18.296874-18.292969v-27.523437c0-10.085938-8.207031-18.292969-18.296874-18.292969h-56.839844c-7.148438 0-13.335938 4.128906-16.34375 10.117188h-30.960938c-10.578125 0-19.585937 7.5625-21.414062 17.980468l-11.324219 64.429688h-13.261719v-26.296875c0-9.445313-7.683594-17.128907-17.128906-17.128907h-20.953125c-4.144531 0-7.503906 3.359376-7.503906 7.503907s3.359375 7.5 7.503906 7.5h20.953125c1.171875 0 2.125.953125 2.125 2.125v26.296875h-63.058594v-26.296875c0-1.171875.953125-2.125 2.125-2.125h3.507813c4.144531 0 7.503906-3.355469 7.503906-7.5s-3.359375-7.503907-7.503906-7.503907h-3.507813c-9.445312 0-17.128906 7.683594-17.128906 17.128907v26.316406c-12.457031.441406-22.457031 10.707031-22.457031 23.269531v10.902344h-23.40625l-31.910157-7.796875c-3.753906-.917969-7.652343-.078125-10.691406 2.308594-3.042968 2.386719-4.785156 5.972656-4.785156 9.835937v48.207032c0 3.863281 1.742188 7.449218 4.78125 9.832031 2.234375 1.757812 4.933594 2.675781 7.695312 2.675781.996094 0 2-.121094 2.996094-.363281l31.914063-7.796875h23.40625v34.667968c0 12.84375 10.445312 23.289063 23.289062 23.289063h22.957031v15.289063c0 6.894531 5.609376 12.503906 12.503907 12.503906h4.359375v14.964844c0 6.894531 5.605468 12.503906 12.503906 12.503906h10.097656v55.289062h-2.550781c-6.894531 0-12.503906 5.609375-12.503906 12.503906v49.019532h-62.757813c-19.222656 0-34.863281 15.636718-34.863281 34.859375v28.414062c0 6.894531 5.609375 12.503907 12.507813 12.503907h10.511718c4.867188 13.160156 17.542969 22.570312 32.378906 22.570312 14.832032 0 27.507813-9.410156 32.378907-22.570312h96.21875c4.867187 13.160156 17.542969 22.570312 32.378906 22.570312 14.832031 0 27.507813-9.410156 32.378906-22.570312h10.511719c6.894531 0 12.503906-5.609376 12.503906-12.503907v-28.410156c0-19.226563-15.636718-34.863281-34.863281-34.863281h-62.757813v-10.097656c0-4.144532-3.359374-7.503907-7.5-7.503907-4.144531 0-7.503906 3.359375-7.503906 7.503907v10.097656h-46.515625v-46.515625h46.515625v2.574219c0 4.144531 3.359375 7.5 7.503906 7.5 4.140626 0 7.5-3.355469 7.5-7.5v-5.078126c0-6.894531-5.609374-12.503906-12.503906-12.503906h-2.550781v-55.289062h10.101563c6.894531 0 12.503906-5.609375 12.503906-12.503906v-14.964844h4.355468c6.898438 0 12.507813-5.609375 12.507813-12.503906v-15.285157h21.15625c12.84375 0 23.289063-10.449219 23.289063-23.292969v-10.210937h18.203124c5.097657 0 9.351563-3.644531 10.304688-8.464844h10.707031c.949219 4.820313 5.207031 8.464844 10.300781 8.464844h24.605469l57.378907 14.023437c1.363281.335938 2.738281.5 4.101562.5 3.78125 0 7.472656-1.261718 10.53125-3.660156 4.160156-3.269531 6.546875-8.175781 6.546875-13.464844v-85.679687c0-5.289063-2.386719-10.195313-6.546875-13.464844zm-156.636719-88.039062c0-1.8125 1.472657-3.289063 3.289063-3.289063h56.839844c1.816406 0 3.289062 1.476563 3.289062 3.289063v27.519531c0 1.816406-1.472656 3.289062-3.289062 3.289062h-56.839844c-1.816406 0-3.289063-1.476562-3.289063-3.289062zm-237.632812 152.003906-23.691407 5.789063v-41.832032l23.691407 5.789063zm32.09375-1.679687h-17.085938v-26.890626h17.085938zm28.433593 328.378906c-10.753906 0-19.507812-8.75-19.507812-19.503906 0-10.757813 8.753906-19.507813 19.507812-19.507813 10.753907 0 19.503907 8.75 19.503907 19.507813 0 10.753906-8.75 19.503906-19.503907 19.503906zm160.972657 0c-10.753907 0-19.503907-8.75-19.503907-19.503906 0-10.757813 8.75-19.507813 19.503907-19.507813 10.757812 0 19.507812 8.75 19.507812 19.507813 0 10.753906-8.75 19.503906-19.507812 19.503906zm-49.726563-68.339844h70.261719c10.949219 0 19.855469 8.910156 19.855469 19.859375v25.910156h-6.023438c-1.554687-17.597656-16.371094-31.445312-34.363281-31.445312-17.996094 0-32.8125 13.84375-34.367187 31.445312h-92.242188c-1.558594-17.597656-16.371094-31.445312-34.367188-31.445312-17.996093 0-32.808593 13.84375-34.367187 31.445312h-6.023437v-25.910156c0-10.949219 8.910156-19.859375 19.855468-19.859375zm15.207032-397.960938c.570312-3.226562 3.359374-5.570312 6.636718-5.570312h29.007813v15.582031h-14c-6.324219 0-11.78125 4.507813-12.976563 10.714844l-7.925781 41.105469h-11.605469zm-37.761719 321.433594h-16.40625v-55.289062h16.40625zm22.601562-70.292968h-61.613281v-12.074219h61.613281zm16.863281-27.46875h-95.339843v-12.785157h95.339843zm-42.679687-27.792969v-27.453125c0-3.449219 2.808594-6.253906 6.253906-6.253906h29.839844c3.449219 0 6.253906 2.804687 6.253906 6.253906v27.453125zm87.128906-101.9375v93.652343c0 4.566407-3.71875 8.285157-8.285156 8.285157h-21.488281v-27.453125c0-11.722656-9.539063-21.257813-21.257813-21.257813h-29.839843c-11.726563 0-21.261719 9.535157-21.261719 21.257813v27.453125h-75.617188c-4.566406 0-8.285156-3.71875-8.285156-8.285157v-102.472656c0-4.566406 3.71875-8.28125 8.285156-8.28125h169.464844c4.566406 0 8.285156 3.714844 8.285156 8.28125zm28.707031 68.4375h-13.703124v-60.875h13.703124zm25.308594-8.46875h-10.304687v-43.9375h10.304687zm28.710938 8.46875h-13.707032v-60.875h13.707032zm69.949218 12.402343c0 .894532-.503906 1.421876-.804687 1.660157-.300781.234375-.9375.597656-1.804687.390625l-52.335938-12.789063v-64.203125l52.335938-12.789062c.867187-.210938 1.5.152344 1.804687.390625.300781.238281.804687.769531.804687 1.660156zm0 0"/><path d="m205.871094 120.9375c-11.507813 0-20.867188 9.363281-20.867188 20.867188 0 11.503906 9.359375 20.867187 20.867188 20.867187 11.503906 0 20.863281-9.363281 20.863281-20.867187 0-11.503907-9.359375-20.867188-20.863281-20.867188zm0 26.726562c-3.234375 0-5.863282-2.628906-5.863282-5.859374 0-3.230469 2.628907-5.859376 5.863282-5.859376 3.230468 0 5.859375 2.628907 5.859375 5.859376 0 3.230468-2.628907 5.859374-5.859375 5.859374zm0 0"/></svg>